<svg xmlns="http://www.w3.org/2000/svg" width="40px" height="40px"  viewBox="0 0 24 24"><g>
                <path fill="white" d="M5.552,20.968c-1.541-0.056-2.496-1.249-2.504-2.729c-0.012-2.153,0-4.307,0-6.46
                    c0-0.645,1-0.643,1,0c0,2.199-0.032,4.401,0,6.6c0.016,1.107,0.848,1.589,1.838,1.589h12.467c0.643-0.021,1.237-0.337,1.472-0.97
                    c0.125-0.337,0.095-0.708,0.095-1.061c0-2.053,0-4.106,0-6.159l0,0c0-0.645,1-0.643,1,0c0,2.224,0.086,4.465,0,6.688
                    c-0.058,1.498-1.209,2.489-2.67,2.502H5.552z"/>
                <path fill="white" d="M12.337,3.176c-0.097-0.097-0.205-0.133-0.311-0.138c-0.014-0.002-0.028-0.005-0.042-0.006
                    c-0.014,0.001-0.027,0.004-0.041,0.006c-0.107,0.005-0.215,0.041-0.312,0.138L7.961,6.845C7.506,7.301,8.212,8.008,8.668,7.552
                    c0.938-0.938,1.877-1.877,2.815-2.815v10.742c0,0.643,1,0.644,1,0V4.737l2.815,2.815c0.456,0.456,1.163-0.251,0.707-0.707
                    L12.337,3.176z"/>
            </g></svg>