<svg xmlns="http://www.w3.org/2000/svg" width="40px" height="40px"  viewBox="0 0 24 24"><g>
                <g>
                    <path fill="white" d="M11.5,15.001c0,0.643,1,0.645,1,0l0,0v-4.018c0-0.643-1-0.645-1,0V15.001z"/>
                    <circle fill="white" cx="12" cy="9.001" r="0.5"/>
                </g>
                <path fill="white" d="M12,2.067c5.478,0,9.934,4.456,9.934,9.933S17.478,21.933,12,21.933S2.066,17.477,2.066,12
                    S6.522,2.067,12,2.067z M12,20.933c4.926,0,8.934-4.007,8.934-8.933S16.926,3.067,12,3.067S3.066,7.074,3.066,12
                    S7.074,20.933,12,20.933z"/>
            </g></svg>