<svg xmlns="http://www.w3.org/2000/svg" width="40px" height="40px"  viewBox="0 0 24 24"><path fill="white" d="M4.061,13.67c0.26,2.74,1.92,5.23,4.4,6.45c2.45,1.2,5.43,1.07,7.74-0.38
                c2.34-1.46,3.74-4.02,3.77-6.77c0-0.64-1-0.64-1,0c-0.03,2.74-1.62,5.25-4.13,6.37c-2.23,1-4.88,0.73-6.87-0.67
                c-2.03-1.44-3.15-3.92-2.91-6.4c0.24-2.39,1.76-4.51,3.91-5.57c1.48-0.72,3.05-0.7,4.64-0.69v1.45c0,0.41,0.48,0.65,0.81,0.39
                l2.47-1.95c0.26-0.21,0.25-0.59,0-0.79l-2.49-1.94c-0.33-0.25-0.81-0.02-0.8,0.4v1.44c-0.71-0.01-1.43-0.03-2.13,0.02
                c-1.54,0.11-3.03,0.65-4.26,1.59C5.041,8.26,3.811,10.96,4.061,13.67z"/></svg>