<svg xmlns="http://www.w3.org/2000/svg" width="40px" height="40px"  viewBox="0 0 24 24"><g>
                <path fill="white" d="M8.5,5.13V2.55c0-0.26-0.23-0.52-0.5-0.5c-0.27,0.01-0.5,0.22-0.5,0.5v2.58
                    C6.64,5.35,6,6.13,6,7.06v1c0,0.93,0.64,1.71,1.5,1.93v11.46c0,0.65,1,0.65,1,0V9.99c0.86-0.22,1.5-1,1.5-1.93v-1
                    C10,6.13,9.36,5.35,8.5,5.13z M9,8.06c0,0.55-0.45,1-1,1s-1-0.45-1-1v-1c0-0.54,0.44-0.99,0.98-1c0.01,0,0.01,0,0.02,0
                    c0.55,0,1,0.45,1,1V8.06z"/>
                <path fill="white" d="M16.5,14.01V2.55c0-0.65-1-0.65-1,0v11.46c-0.86,0.22-1.5,1-1.5,1.93v1c0,0.93,0.64,1.71,1.5,1.93
                    v2.58c0,0.26,0.23,0.52,0.5,0.5c0.27-0.01,0.5-0.22,0.5-0.5v-2.58c0.86-0.22,1.5-1,1.5-1.93v-1C18,15.01,17.36,14.23,16.5,14.01z
                    M17,16.94c0,0.54-0.44,0.99-0.98,1c-0.01,0-0.01,0-0.02,0c-0.55,0-1-0.45-1-1v-1c0-0.55,0.45-1,1-1s1,0.45,1,1V16.94z"/>
            </g></svg>